HIERARCHY
ROOT Hips
{
  OFFSET 54.304 93.8925 34.5014
  CHANNELS 6 Xposition Yposition Zposition Zrotation Xrotation Yrotation
  JOINT spine
  {
    OFFSET 0 7.80059 0.448573
    CHANNELS 3 Zrotation Xrotation Yrotation
    JOINT spine1
    {
      OFFSET 0 10.1364 0
      CHANNELS 3 Zrotation Xrotation Yrotation
      JOINT spine2
      {
        OFFSET 0 9.71251 0
        CHANNELS 3 Zrotation Xrotation Yrotation
        JOINT Neck
        {
          OFFSET 0 24.9361 1.18887
          CHANNELS 3 Zrotation Xrotation Yrotation
          JOINT Head
          {
            OFFSET 0 7.53384 0
            CHANNELS 3 Zrotation Xrotation Yrotation
            End Site
            {
              OFFSET 0 18.2361 -6.01402
            }
          }
        }
        JOINT RightShoulder
        {
          OFFSET -4.08965 10.4888 -0.569457
          CHANNELS 3 Zrotation Xrotation Yrotation
          JOINT RightArm
          {
            OFFSET 0 13.757 0
            CHANNELS 3 Zrotation Xrotation Yrotation
            JOINT RightArmRoll
            {
              OFFSET 0 6.94478 0
              CHANNELS 3 Zrotation Xrotation Yrotation
              JOINT RightForeArm
              {
                OFFSET 0 20.2277 0
                CHANNELS 3 Zrotation Xrotation Yrotation
                JOINT RightForeArmRoll
                {
                  OFFSET 0 7.79312 0
                  CHANNELS 3 Zrotation Xrotation Yrotation
                  JOINT RightHand
                  {
                    OFFSET 0 15.6391 0
                    CHANNELS 3 Zrotation Xrotation Yrotation
                    End Site
                    {
                      OFFSET 0 0 0
                    }
                  }
                }
              }
            }
          }
        }
        JOINT LeftShoulder
        {
          OFFSET 4.08965 10.4888 -0.569457
          CHANNELS 3 Zrotation Xrotation Yrotation
          JOINT LeftArm
          {
            OFFSET 0 13.757 0
            CHANNELS 3 Zrotation Xrotation Yrotation
            JOINT LeftArmRoll
            {
              OFFSET 0 6.94478 0
              CHANNELS 3 Zrotation Xrotation Yrotation
              JOINT LeftForeArm
              {
                OFFSET 0 20.2277 0
                CHANNELS 3 Zrotation Xrotation Yrotation
                JOINT LeftForeArmRoll
                {
                  OFFSET 0 7.79312 0
                  CHANNELS 3 Zrotation Xrotation Yrotation
                  JOINT LeftHand
                  {
                    OFFSET 0 15.6391 0
                    CHANNELS 3 Zrotation Xrotation Yrotation
                    End Site
                    {
                      OFFSET 0 0 0
                    }
                  }
                }
              }
            }
          }
        }
      }
    }
  }
  JOINT RightUpLeg
  {
    OFFSET -6.91416 -1.26788 -1.06358
    CHANNELS 3 Zrotation Xrotation Yrotation
    JOINT RightUpLegRoll
    {
      OFFSET 0 18.3378 0
      CHANNELS 3 Zrotation Xrotation Yrotation
      JOINT RightLeg
      {
        OFFSET 0 -22.7085 0
        CHANNELS 3 Zrotation Xrotation Yrotation
        JOINT RightLegRoll
        {
          OFFSET 0 22.7828 0
          CHANNELS 3 Zrotation Xrotation Yrotation
          JOINT RightFoot
          {
            OFFSET 0 18.9629 0
            CHANNELS 3 Zrotation Xrotation Yrotation
            JOINT RightToeBase
            {
              OFFSET 0 15.852 0
              CHANNELS 3 Zrotation Xrotation Yrotation
              End Site
              {
                OFFSET 0.00671906 7.677 -0.884893
              }
            }
          }
        }
      }
    }
  }
  JOINT LeftUpLeg
  {
    OFFSET 6.91416 -1.26788 -1.06358
    CHANNELS 3 Zrotation Xrotation Yrotation
    JOINT LeftUpLegRoll
    {
      OFFSET 0 18.3379 0
      CHANNELS 3 Zrotation Xrotation Yrotation
      JOINT LeftLeg
      {
        OFFSET 0 22.7084 0
        CHANNELS 3 Zrotation Xrotation Yrotation
        JOINT LeftLegRoll
        {
          OFFSET 0 22.9934 0
          CHANNELS 3 Zrotation Xrotation Yrotation
          JOINT LeftFoot
          {
            OFFSET 0 18.7522 0
            CHANNELS 3 Zrotation Xrotation Yrotation
            JOINT LeftToeBase
            {
              OFFSET 0 15.852 0
              CHANNELS 3 Zrotation Xrotation Yrotation
              End Site
              {
                OFFSET -0.030112 7.677 -0.884893
              }
            }
          }
        }
      }
    }
  }
}
MOTION
Frames: 12
Frame Time: 0.00208333
51.4716 60.3145 9.92784 -3.29384 20.4401 9.99435 0.688772 4.24937 -0.329662 1.4274 12.4962 -0.808159 1.4432 14.141 -0.835172 -37.3891 -45.0022 -23.6681 21.9367 1.26932 -9.4419 39.0723 -12.6914 -8.57479 138.298 40.8165 -75.3469 -1.61375e-006 -2.79706e-006 -7.2305e-007 29.8192 51.0878 -12.7882 -3.02161e-006 1.28479e-005 -3.00002 8.02895 -4.95082 0.697326 -53.5693 -11.5632 7.29048 -99.2134 38.2924 56.8096 6.3792e-006 -5.17107e-006 -4.70643e-006 -48.8383 69.8685 41.6972 7.24887e-006 3.94464e-006 3.00001 -8.02885 -4.95089 -0.697464 -75.8788 81.9829 -102.58 180 1.52543e-005 178.616 -22.4802 77.3336 25.2564 8.90174e-007 -2.0949e-006 3.27615 -126.456 82.7131 131.524 8.13678 25.237 -3.48555 -85.8957 82.3441 -115.431 4.57705e-006 1.05463e-005 -2.9112 175.759 -75.1517 177.169 -1.14586e-006 -8.28892e-006 -4.14453 81.4213 79.8789 -65.7399 -9.44967 39.226 4.8902 
51.4708 60.4593 10.0073 -3.30634 20.4477 10.0199 0.682737 4.23135 -0.328657 1.41484 12.4603 -0.804517 1.43053 14.105 -0.831293 -37.2989 -45.0102 -23.6382 21.9151 1.26888 -9.44338 39.1655 -12.6567 -8.53974 138.444 40.864 -75.1435 -1.61375e-006 -2.79706e-006 -7.2305e-007 29.9269 50.6632 -12.7026 -3.02161e-006 1.28479e-005 -3.00002 8.02895 -4.95082 0.697326 -53.602 -11.5518 7.28194 -99.3538 38.2726 56.6268 6.3792e-006 -5.17107e-006 -4.70643e-006 -48.2991 69.5355 41.0037 7.24887e-006 3.94464e-006 3.00001 -8.02885 -4.95089 -0.697464 -77.3847 82.0509 -101.081 180 1.52543e-005 178.617 -22.7048 77.5134 25.4545 8.90174e-007 -2.0949e-006 3.27556 -126.754 82.6786 131.792 8.13678 25.2369 -3.48557 -87.3078 82.3945 -113.913 4.57705e-006 1.05463e-005 -2.90108 175.94 -75.3117 177.398 -1.14586e-006 -8.28892e-006 -4.13124 81.3691 79.8862 -65.7353 -9.45478 39.2666 4.89368 
51.4702 60.5962 10.0812 -3.31787 20.4543 10.0448 0.676433 4.21332 -0.327616 1.40173 12.4243 -0.800721 1.4173 14.0691 -0.82725 -37.2076 -45.0183 -23.6085 21.8933 1.26986 -9.44586 39.2576 -12.6221 -8.50498 138.594 40.9099 -74.9363 -1.61375e-006 -2.79706e-006 -7.2305e-007 30.0313 50.2345 -12.6144 -3.02161e-006 1.28479e-005 -3.00002 8.02895 -4.95082 0.697326 -53.6365 -11.5401 7.27319 -99.4965 38.2524 56.44 6.3792e-006 -5.17107e-006 -4.70643e-006 -47.7727 69.197 40.3227 7.24887e-006 3.94464e-006 3.00001 -8.02885 -4.95089 -0.697464 -78.9303 82.1132 -99.5434 180 1.52544e-005 178.619 -22.9425 77.6961 25.6656 8.90174e-007 -2.0949e-006 3.27461 -127.033 82.6456 132.041 8.13678 25.2369 -3.48558 -88.764 82.4405 -112.352 4.57705e-006 1.05463e-005 -2.89091 176.127 -75.4751 177.636 -1.14586e-006 -8.28892e-006 -4.11755 81.3141 79.8929 -65.726 -9.4598 39.3062 4.89714 
51.4621 60.7318 10.1601 -3.32878 20.4596 10.0689 0.66994 4.19532 -0.326512 1.38823 12.3884 -0.796746 1.40369 14.0332 -0.82302 -37.1154 -45.0266 -23.5791 21.8718 1.27206 -9.44904 39.3498 -12.5873 -8.47027 138.745 40.9547 -74.7251 -1.61375e-006 -2.79706e-006 -7.2305e-007 30.1319 49.8014 -12.5231 -3.02161e-006 1.28479e-005 -3.00002 8.02895 -4.95082 0.697326 -53.673 -11.528 7.26411 -99.6413 38.2321 56.2493 6.3792e-006 -5.17107e-006 -4.70643e-006 -47.2598 68.8531 39.6546 7.24887e-006 3.94464e-006 3.00001 -8.02885 -4.95089 -0.697464 -80.5177 82.1691 -97.9651 180 1.52544e-005 178.62 -23.1941 77.8816 25.8905 8.90174e-007 -2.0949e-006 3.27331 -127.293 82.614 132.272 8.13678 25.2369 -3.48559 -90.2642 82.4812 -110.748 4.57705e-006 1.05463e-005 -2.88066 176.322 -75.642 177.883 -1.14586e-006 -8.28892e-006 -4.10347 81.2571 79.899 -65.7129 -9.4647 39.3445 4.90055 
51.4506 60.8857 10.2334 -3.33937 20.4633 10.0922 0.663337 4.17741 -0.325318 1.37451 12.3526 -0.792567 1.38984 13.9974 -0.818583 -37.0222 -45.0353 -23.5497 21.8509 1.27529 -9.45261 39.4431 -12.5522 -8.4354 138.898 40.999 -74.5096 -1.61375e-006 -2.79706e-006 -7.2305e-007 30.2278 49.3633 -12.4281 -3.02161e-006 1.28479e-005 -3.00002 8.02895 -4.95082 0.697326 -53.7119 -11.5152 7.25459 -99.788 38.2118 56.0547 6.3792e-006 -5.17107e-006 -4.70643e-006 -46.7608 68.5042 38.9998 7.24887e-006 3.94464e-006 3.00001 -8.02885 -4.95089 -0.697464 -82.1479 82.218 -96.3444 180 1.52544e-005 178.622 -23.4605 78.0701 26.1301 8.90174e-007 -2.0949e-006 3.27167 -127.538 82.5838 132.487 8.13677 25.2369 -3.4856 -91.808 82.5158 -109.101 4.57705e-006 1.05463e-005 -2.87033 176.524 -75.8124 178.138 -1.14586e-006 -8.28892e-006 -4.08905 81.1989 79.9048 -65.6969 -9.46944 39.3814 4.90387 
51.4524 61.0249 10.3167 -3.34998 20.4652 10.1146 0.656701 4.15963 -0.32401 1.36071 12.3172 -0.788159 1.37592 13.962 -0.813914 -36.9281 -45.0444 -23.5202 21.8311 1.27937 -9.45627 39.5386 -12.5166 -8.40013 139.05 41.0435 -74.2896 -1.61375e-006 -2.79706e-006 -7.2305e-007 30.3183 48.9199 -12.3291 -3.02161e-006 1.28479e-005 -3.00002 8.02895 -4.95082 0.697326 -53.7532 -11.5016 7.24451 -99.9362 38.192 55.8562 6.3792e-006 -5.17107e-006 -4.70643e-006 -46.2761 68.1503 38.3587 7.24887e-006 3.94464e-006 3.00001 -8.02885 -4.95089 -0.697464 -83.8216 82.2591 -94.6807 180 1.52544e-005 178.623 -23.7427 78.2614 26.3855 8.90174e-007 -2.0949e-006 3.26971 -127.766 82.5548 132.686 8.13677 25.2369 -3.48561 -93.394 82.5434 -107.412 4.57705e-006 1.05463e-005 -2.85991 176.733 -75.9864 178.4 -1.14586e-006 -8.28892e-006 -4.07431 81.1404 79.9101 -65.679 -9.47397 39.4167 4.90703 
51.4485 61.1819 10.3931 -3.36092 20.4651 10.136 0.650113 4.14203 -0.322559 1.34701 12.282 -0.783495 1.36208 13.9268 -0.808992 -36.8333 -45.0539 -23.4904 21.8126 1.28411 -9.4597 39.6376 -12.4803 -8.36424 139.201 41.0887 -74.0647 -1.61375e-006 -2.79706e-006 -7.2305e-007 30.4028 48.4708 -12.2254 -3.02161e-006 1.28479e-005 -3.00002 8.02895 -4.95082 0.697326 -53.7973 -11.4871 7.23376 -100.086 38.1727 55.6539 6.3792e-006 -5.17107e-006 -4.70643e-006 -45.8061 67.7917 37.7316 7.24887e-006 3.94464e-006 3.00001 -8.02885 -4.95089 -0.697464 -85.5387 82.2916 -92.9735 180 1.52544e-005 178.625 -24.0419 78.4558 26.6577 8.90174e-007 -2.0949e-006 3.26743 -127.981 82.5271 132.871 8.13677 25.2368 -3.48562 -95.0202 82.5633 -105.683 4.57705e-006 1.05463e-005 -2.84939 176.948 -76.1641 178.669 -1.14586e-006 -8.28892e-006 -4.05928 81.0822 79.9152 -65.66 -9.47825 39.45 4.91 
51.4445 61.3234 10.4719 -3.37253 20.4626 10.1564 0.643651 4.12465 -0.32094 1.33355 12.2474 -0.778553 1.34849 13.8922 -0.803793 -36.7377 -45.064 -23.4602 21.7959 1.2893 -9.46262 39.7409 -12.443 -8.32751 139.351 41.1353 -73.8348 -1.61375e-006 -2.79706e-006 -7.2305e-007 30.4807 48.0153 -12.1167 -3.02161e-006 1.28479e-005 -3.00002 8.02895 -4.95082 0.697326 -53.8443 -11.4715 7.22223 -100.237 38.1544 55.4478 6.3792e-006 -5.17107e-006 -4.70643e-006 -45.351 67.4287 37.1187 7.24887e-006 3.94464e-006 3.00001 -8.02885 -4.95089 -0.697464 -87.2983 82.3146 -91.2239 180 1.52544e-005 178.626 -24.3593 78.6531 26.9478 8.90174e-007 -2.0949e-006 3.26485 -128.183 82.5005 133.044 8.13677 25.2368 -3.48563 -96.6834 82.5745 -103.916 4.57705e-006 1.05463e-005 -2.83874 177.169 -76.3456 178.946 -1.14586e-006 -8.28892e-006 -4.044 81.0253 79.92 -65.6409 -9.48225 39.4811 4.91273 
51.4212 61.4746 10.5388 -3.38512 20.4576 10.1757 0.637394 4.10755 -0.319127 1.3205 12.2132 -0.773305 1.33531 13.858 -0.798296 -36.6414 -45.0746 -23.4294 21.7813 1.29478 -9.46471 39.8499 -12.4046 -8.28971 139.497 41.1839 -73.5994 -1.61375e-006 -2.79706e-006 -7.2305e-007 30.5514 47.5532 -12.0024 -3.02161e-006 1.28479e-005 -3.00002 8.02895 -4.95082 0.697326 -53.8945 -11.4545 7.20979 -100.388 38.1372 55.2379 6.3792e-006 -5.17107e-006 -4.70643e-006 -44.9112 67.0614 36.5202 7.24887e-006 3.94464e-006 3.00001 -8.02885 -4.95089 -0.697464 -89.0986 82.3273 -89.4332 180 1.52544e-005 178.628 -24.6961 78.8533 27.2573 8.90174e-007 -2.0949e-006 3.26198 -128.372 82.475 133.204 8.13677 25.2368 -3.48564 -98.3799 82.5762 -102.117 4.57705e-006 1.05463e-005 -2.82797 177.396 -76.531 179.229 -1.14586e-006 -8.28892e-006 -4.02849 80.9705 79.9246 -65.6226 -9.48591 39.5099 4.91517 
51.4226 61.6196 10.6208 -3.39902 20.4498 10.1937 0.631421 4.09076 -0.317093 1.30801 12.1797 -0.767727 1.32269 13.8246 -0.792478 -36.5445 -45.0859 -23.3979 21.7693 1.30033 -9.46566 39.9656 -12.3649 -8.25062 139.639 41.235 -73.3582 -1.61375e-006 -2.79706e-006 -7.2305e-007 30.6143 47.084 -11.8822 -3.02161e-006 1.28479e-005 -3.00002 8.02895 -4.95082 0.697326 -53.9482 -11.4361 7.19635 -100.54 38.1214 55.0242 6.3792e-006 -5.17107e-006 -4.70643e-006 -44.4868 66.6902 35.9363 7.24887e-006 3.94464e-006 3.00001 -8.02885 -4.95089 -0.697464 -90.9369 82.3288 -87.6039 180 1.52544e-005 178.629 -25.0538 79.0566 27.5876 8.90174e-007 -2.0949e-006 3.25883 -128.551 82.4505 133.354 8.13677 25.2368 -3.48566 -100.105 82.5675 -100.289 4.57705e-006 1.05463e-005 -2.81705 177.628 -76.7203 179.519 -1.14586e-006 -8.28892e-006 -4.01278 80.9185 79.9291 -65.606 -9.4892 39.5361 4.91727 
51.4232 61.7833 10.6944 -3.41341 20.4394 10.2101 0.625493 4.07427 -0.314786 1.29561 12.1468 -0.761669 1.31015 13.7917 -0.78618 -36.4466 -45.0977 -23.3661 21.7594 1.30598 -9.46631 40.0857 -12.3244 -8.21069 139.781 41.2868 -73.1106 -1.61375e-006 -2.79706e-006 -7.2305e-007 30.6715 46.6062 -11.7568 -3.02161e-006 1.28479e-005 -3.00002 8.02895 -4.95082 0.697326 -54.005 -11.4163 7.18192 -100.694 38.1052 54.8051 6.3792e-006 -5.17107e-006 -4.70643e-006 -44.076 66.3148 35.3656 7.24887e-006 3.94464e-006 3.00001 -8.02885 -4.95089 -0.697464 -92.805 82.3183 -85.7452 180 1.52544e-005 178.631 -25.4362 79.263 27.9427 8.90174e-007 -2.0949e-006 3.25534 -128.716 82.4275 133.49 8.13677 25.2368 -3.48567 -101.856 82.5483 -98.4349 4.57705e-006 1.05463e-005 -2.80598 177.869 -76.9137 179.818 -1.14586e-006 -8.28892e-006 -3.99675 80.8677 79.9333 -65.5888 -9.49224 39.5603 4.91921 
51.4177 61.9248 10.7751 -3.42728 20.427 10.2246 0.619343 4.05803 -0.3122 1.28273 12.1144 -0.755049 1.29713 13.7593 -0.779312 -36.3475 -45.1098 -23.3348 21.7509 1.31196 -9.4676 40.2076 -12.2836 -8.17054 139.926 41.3373 -72.8562 -1.61375e-006 -2.79706e-006 -7.2305e-007 30.7256 46.1194 -11.6273 -3.02161e-006 1.28479e-005 -3.00002 8.02895 -4.95082 0.697326 -54.0645 -11.3954 7.16668 -100.85 38.0871 54.5792 6.3792e-006 -5.17107e-006 -4.70643e-006 -43.677 65.9347 34.8067 7.24887e-006 3.94464e-006 3.00001 -8.02885 -4.95089 -0.697464 -94.6918 82.2955 -83.8694 180 1.52544e-005 178.632 -25.8467 79.4724 28.3262 8.90174e-007 -2.0949e-006 3.25144 -128.863 82.4064 133.609 8.13677 25.2368 -3.48568 -103.63 82.5187 -96.5596 4.57705e-006 1.05463e-005 -2.7948 178.123 -77.1109 -179.868 -1.14586e-006 -8.28892e-006 -3.98027 80.8158 79.9368 -65.5682 -9.49517 39.5833 4.92118 
